<svg xmlns="http://www.w3.org/2000/svg" xmlns:xlink="http://www.w3.org/1999/xlink" viewBox="0 0 1135.92 1135.92"><defs><style>.cls-1{stroke:#fff;stroke-width:2.95px;}.cls-1,.cls-2,.cls-3{stroke-miterlimit:10;}.cls-2,.cls-3{fill:none;stroke-width:52.35px;}.cls-2{stroke:#090c10;}.cls-3{stroke:url(#Degradado_sin_nombre_20);}.cls-4{fill:url(#Degradado_sin_nombre_7);}.cls-5{fill:url(#Degradado_sin_nombre_7-2);}.cls-6{fill:url(#Degradado_sin_nombre_7-3);}</style><linearGradient id="Degradado_sin_nombre_20" x1="166.35" y1="969.57" x2="969.57" y2="166.35" gradientUnits="userSpaceOnUse"><stop offset="0" stop-color="#f7ec32"/><stop offset="1" stop-color="#f79420"/></linearGradient><linearGradient id="Degradado_sin_nombre_7" x1="453.15" y1="682.08" x2="692.04" y2="443.19" gradientUnits="userSpaceOnUse"><stop offset="0" stop-color="#d6de27"/><stop offset="1" stop-color="#f79420"/></linearGradient><linearGradient id="Degradado_sin_nombre_7-2" x1="417" y1="645.93" x2="655.89" y2="407.04" xlink:href="#Degradado_sin_nombre_7"/><linearGradient id="Degradado_sin_nombre_7-3" x1="518.2" y1="747.13" x2="757.09" y2="508.24" xlink:href="#Degradado_sin_nombre_7"/></defs><g id="Capa_2" data-name="Capa 2"><g id="OBJECTS"><circle class="cls-1" cx="567.96" cy="567.96" r="497.36"/><circle class="cls-2" cx="567.96" cy="567.96" r="506.09"/><circle class="cls-3" cx="567.96" cy="567.96" r="541.78"/><path class="cls-4" d="M618,606.34h97.22a2.57,2.57,0,0,0,2.23-3.85L618.8,430.8a2.57,2.57,0,0,0-2.23-1.29H519.35a2.58,2.58,0,0,0-2.23,3.86L615.8,605.05A2.57,2.57,0,0,0,618,606.34Z"/><path class="cls-5" d="M558.73,538.06l-50.08-85.83a2.58,2.58,0,0,0-2.22-1.28h0a2.58,2.58,0,0,0-2.22,1.31l-93,164.47a2.61,2.61,0,0,0,0,2.54l48.61,85.83a2.61,2.61,0,0,0,2.23,1.31h0a2.58,2.58,0,0,0,2.23-1.3l94.43-164.47A2.58,2.58,0,0,0,558.73,538.06Z"/><path class="cls-6" d="M722.44,615.43H535.06a2.55,2.55,0,0,0-2.23,1.3l-48.68,85.83a2.57,2.57,0,0,0,2.24,3.85H673.77A2.58,2.58,0,0,0,676,705.1l48.68-85.83a2.57,2.57,0,0,0-2.25-3.84Z"/></g></g></svg>