<svg xmlns="http://www.w3.org/2000/svg" xmlns:xlink="http://www.w3.org/1999/xlink" viewBox="0 0 1135.92 1135.92"><defs><style>.cls-1{stroke:#fff;stroke-width:2.95px;}.cls-1,.cls-2,.cls-3{stroke-miterlimit:10;}.cls-2,.cls-3{fill:none;stroke-width:52.35px;}.cls-2{stroke:#090c10;}.cls-3{stroke:url(#Degradado_sin_nombre_41);}.cls-4{fill:url(#Degradado_sin_nombre_41-2);}.cls-5{fill:url(#Degradado_sin_nombre_41-3);}.cls-6{fill:url(#Degradado_sin_nombre_41-4);}</style><linearGradient id="Degradado_sin_nombre_41" x1="166.35" y1="969.57" x2="969.57" y2="166.35" gradientTransform="translate(567.96 -235.26) rotate(45)" gradientUnits="userSpaceOnUse"><stop offset="0" stop-color="#f7ec32"/><stop offset="1" stop-color="#f79420"/></linearGradient><linearGradient id="Degradado_sin_nombre_41-2" x1="398.63" y1="567.96" x2="737.29" y2="567.96" gradientTransform="matrix(1, 0, 0, 1, 0, 0)" xlink:href="#Degradado_sin_nombre_41"/><linearGradient id="Degradado_sin_nombre_41-3" x1="481" y1="567.96" x2="654.91" y2="567.96" gradientTransform="matrix(1, 0, 0, 1, 0, 0)" xlink:href="#Degradado_sin_nombre_41"/><linearGradient id="Degradado_sin_nombre_41-4" x1="638.03" y1="477.57" x2="678.67" y2="477.57" gradientTransform="matrix(1, 0, 0, 1, 0, 0)" xlink:href="#Degradado_sin_nombre_41"/></defs><g id="Capa_2" data-name="Capa 2"><g id="OBJECTS"><circle class="cls-1" cx="567.96" cy="567.96" r="497.36"/><circle class="cls-2" cx="567.96" cy="567.96" r="506.09"/><circle class="cls-3" cx="567.96" cy="567.96" r="541.78" transform="translate(-235.26 567.96) rotate(-45)"/><path class="cls-4" d="M568,429.14c45.22,0,50.57.17,68.42,1,16.51.76,25.48,3.51,31.45,5.84A56,56,0,0,1,700,468.09c2.33,6,5.08,14.93,5.84,31.45.81,17.85,1,23.21,1,68.42s-.17,50.57-1,68.43c-.76,16.51-3.51,25.47-5.84,31.44A56.06,56.06,0,0,1,667.83,700c-6,2.32-14.94,5.08-31.45,5.83-17.85.81-23.2,1-68.42,1s-50.57-.17-68.43-1c-16.51-.75-25.47-3.51-31.44-5.83A56.11,56.11,0,0,1,436,667.83c-2.31-6-5.07-14.93-5.83-31.44-.81-17.86-1-23.21-1-68.43s.17-50.57,1-68.42c.76-16.52,3.52-25.48,5.83-31.45A56.06,56.06,0,0,1,468.09,436c6-2.33,14.93-5.08,31.44-5.84,17.86-.81,23.22-1,68.43-1m0-30.51c-46,0-51.75.19-69.82,1s-30.33,3.69-41.1,7.88A86.58,86.58,0,0,0,407.52,457c-4.19,10.77-7.06,23.08-7.88,41.1s-1,23.83-1,69.82.19,51.76,1,69.82,3.69,30.33,7.88,41.1A86.64,86.64,0,0,0,457,728.41c10.77,4.18,23.08,7,41.1,7.87s23.83,1,69.82,1,51.75-.19,69.82-1,30.33-3.69,41.1-7.87a86.64,86.64,0,0,0,49.52-49.53c4.19-10.77,7.05-23.08,7.88-41.1s1-23.83,1-69.82-.19-51.75-1-69.82-3.69-30.33-7.88-41.1a86.58,86.58,0,0,0-49.52-49.52c-10.77-4.19-23.08-7-41.1-7.88s-23.83-1-69.82-1"/><path class="cls-5" d="M568,481a87,87,0,1,0,86.95,87A87,87,0,0,0,568,481m0,143.4A56.45,56.45,0,1,1,624.4,568,56.46,56.46,0,0,1,568,624.41"/><path class="cls-6" d="M678.67,477.57a20.32,20.32,0,1,1-20.32-20.32,20.32,20.32,0,0,1,20.32,20.32"/></g></g></svg>