<svg xmlns="http://www.w3.org/2000/svg" viewBox="0 0 651.31 413.91"><defs><style>.cls-1{fill:#ffd100;}</style></defs><g id="Capa_2" data-name="Capa 2"><g id="Capa_2-2" data-name="Capa 2"><path class="cls-1" d="M0,413.47V395.79c7.69-3.06,15.38-5,21.84-9,12.5-7.64,17.79-20.16,18-34.28q1-83.12,1.13-166.23.21-67.79-.21-135.56C40.63,31.76,29.24,18.6,10,15.18,9.79,10.57,9.55,5.81,9.27.32h4.18c24.16,0,48.32,0,72.48,0,6.38,0,11,2.07,15.11,7.43q50.65,66.21,101.84,132c17.78,23,35.64,45.9,53.67,69.12A52.64,52.64,0,0,0,240.12,229c-11,23.55-4.51,50.55,21.6,63.15a10.58,10.58,0,0,1,5.82,6.55c5.9,16.07,16.65,27,33.77,30.88,17.82,4,37.62-3.73,48.18-18.84.23-.33.51-.62.94-1.12v83.2a5.48,5.48,0,0,0,1.42.54c24.15-.26,48.38.55,72.43-1.1,29.06-2,55.5-12.57,78.87-30.19,38.42-28.94,61.18-67.49,69.82-114.61,4.25-23.2,4.2-46.57,2.53-70-2-28.07-9.48-54.55-24.32-78.55-23-37.21-56.46-59.88-99-69.7-18.29-4.22-36.82-4.38-55.4-4.33-15,0-30.08,0-45.57,0v77.86c-17.74-16.24-36.91-18.94-58.22-9,0-4.77.06-9.52,0-14.26-.16-10.5.37-21.07-.74-31.47-1.7-16.14-12.72-27.32-28.54-30.65-1.5-.31-3-.73-4.64-1.15V.31h4.65c55.7,0,111.43-.85,167.11.26,52.28,1,101.19,14.64,143.6,46.66,37.74,28.49,61.71,66.05,71.79,112.36a224.59,224.59,0,0,1,4.17,67.67c-3.58,40.79-17.62,77.5-43.42,109.49q-44.67,55.38-114,71.56a211.36,211.36,0,0,1-47.58,5.5c-36.81.18-73.62.08-110.43,0a84.46,84.46,0,0,1-12.31-.9c-1.38-.2-2.89-1.56-3.79-2.79q-20.85-28.2-41.55-56.51Q202.51,251.71,127.64,149.79q-25.27-34.44-50.53-68.9c-.71-1-1.56-1.86-2.82-3.35-.14,1.19-.25,1.69-.25,2.18q.12,124.29.37,248.56c0,11.17.49,22.54,2.65,33.44,3.64,18.31,18.4,29.93,38.7,32v19.73Z"/><path class="cls-1" d="M407.08,87.17c14.29,0,27.48,9.29,32.71,24,1.41,4,2,8.22,3.08,12.94,2,0,4.22-.21,6.41-.21a21.24,21.24,0,0,1,3.82.3c17,3.09,29.09,21.17,25.66,38.25-4.07,20.27-17.86,31.05-36.77,35.45-13.3,3.09-27.05,4.28-40.61,6.25-5.61.81-11.25,1.43-16.88,2.14v1.65c4.37.44,8.74,1,13.12,1.32,15.92,1.26,32.07.57,47.62,5.15,22.65,6.67,35.15,27.64,29.61,49.53-3.34,13.19-15.48,22.9-29.76,23.79-.87.06-1.74.14-1.71.14h0c-2.55,6-3.9,12-7.22,16.55A31.2,31.2,0,0,1,410.75,317a32.76,32.76,0,0,1-22.53-8.86c-9.94-9.38-14.6-21.4-17.33-34.26-2.46-11.58-4.12-23.34-6.16-35a12.75,12.75,0,0,0-1.64-4.71c-1.61,20.45-.65,40.64,5,60.49s12.79,38.69,29.08,54l-14.65,13.6c-9-11.38-14.43-23.89-18.54-37-8.64-27.62-10.94-56-10.26-84.77,0-1.59,0-3.18,0-4.76l-1.32-.05c-.7,5.17-1.21,10.38-2.12,15.51-2.46,13.75-4.36,27.65-7.84,41.14-3.85,14.94-14.93,22.51-29.95,24.22a25.52,25.52,0,0,1-2.76.15c-13.51,0-27.1-10.89-29.9-25.42-1.23-6.41-3.77-8.71-9.68-11-26.35-10.22-26.09-37.84-11.61-53.9,8.25-9.16,19.1-13.2,30.83-14.44,14.09-1.48,28.28-1.92,42.43-2.79.55,0,1.09,0,1.63,0l2.83,0,.18-1.69c-4.11-.54-8.23-1-12.31-1.65-13.22-2.21-26.71-3.48-39.55-7.06-15.27-4.27-26.25-14.1-30-30.48-4.76-20.77,8.55-38,29.84-38.34,1,0,2-.13,3.23-.21a55.93,55.93,0,0,1,.92-7.91c3-11.6,11.41-17.15,22.46-19.09a35.65,35.65,0,0,1,6.18-.55c13.3,0,24.35,8,31.5,22.51,5.22,10.63,6.68,22.08,7.56,33.67.61,7.92,1.14,15.84,1.77,23.76.06.75.61,1.46,1.74,2.17.82-7.55,1.56-15.12,2.48-22.66,1.86-15.27,2.45-30.77,7.74-45.44a45.21,45.21,0,0,1,16.82-22.39,35.16,35.16,0,0,1,20.25-6.62m36.35,200.67h0M407.08,72.17a50.22,50.22,0,0,0-28.85,9.33,59.78,59.78,0,0,0-21.48,27.34A53.9,53.9,0,0,0,344,95.78a45.76,45.76,0,0,0-26.79-8.61,50.5,50.5,0,0,0-8.77.78c-17.23,3-29.16,12.94-33.81,28A45.13,45.13,0,0,0,248,132.16c-8.37,10.71-11.29,25.09-8,39.46,3.22,14.09,10.87,25.41,22.1,33.11a55.68,55.68,0,0,0-14.66,11.61c-11.35,12.59-16.11,30-12.43,45.49,3.54,14.85,14.1,26.37,29.76,32.44l.44.18a46.72,46.72,0,0,0,16,26.51,44.91,44.91,0,0,0,28.58,10.75,38.92,38.92,0,0,0,4.45-.25c10.5-1.19,19.47-4.62,26.66-10.19a45,45,0,0,0,5.15-4.68q1.65,6.69,3.68,13.16c3.39,10.84,9.26,27,21.11,41.87a15,15,0,0,0,10.61,5.62c.38,0,.76.05,1.13.05a15,15,0,0,0,10.2-4l5.17-4.79,9.49-8.8a15,15,0,0,0,.06-21.93,68.59,68.59,0,0,1-6.18-6.64,48.91,48.91,0,0,0,9.48.92,46.47,46.47,0,0,0,37.58-18.82,48,48,0,0,0,6-11.77,48.21,48.21,0,0,0,19.12-9.32,45.56,45.56,0,0,0,16-24.55,54.81,54.81,0,0,0-5.91-41.84A56.51,56.51,0,0,0,463.39,206c16.09-8.34,26.37-22.12,30.08-40.61a47.78,47.78,0,0,0-7.59-36,47,47,0,0,0-30.11-20l-.84-.14c-.3-1-.63-2.09-1-3.16-7.23-20.31-26.05-33.94-46.84-33.94Z"/></g></g></svg>