<svg xmlns="http://www.w3.org/2000/svg" xmlns:xlink="http://www.w3.org/1999/xlink" viewBox="0 0 920.88 342.01"><defs><style>.cls-1{fill:none;}.cls-2{font-size:102.04px;font-family:CerottaPersonalUseOnly, Cerotta Personal Use Only;}.cls-2,.cls-7{fill:#ffd100;}.cls-3{letter-spacing:-0.06em;}.cls-4{letter-spacing:0em;}.cls-5{letter-spacing:-0.03em;}.cls-6{letter-spacing:-0.01em;}.cls-8{clip-path:url(#clip-path);}.cls-9{clip-path:url(#clip-path-2);}</style><clipPath id="clip-path"><rect class="cls-1" x="177.64" y="309.3" width="171.53" height="18.79"/></clipPath><clipPath id="clip-path-2"><rect class="cls-1" x="571.71" y="309.3" width="171.53" height="18.79" transform="translate(1314.95 637.39) rotate(-180)"/></clipPath></defs><g id="Capa_2" data-name="Capa 2"><g id="Capa_2-2" data-name="Capa 2"><text class="cls-2" transform="translate(0 272.37)">NUM<tspan class="cls-3" x="229.2" y="0">ER</tspan><tspan x="354.01" y="0">O </tspan><tspan class="cls-4" x="473.39" y="0">D</tspan><tspan class="cls-5" x="543.95" y="0">O</tspan><tspan class="cls-6" x="625.71" y="0">R</tspan><tspan x="695.42" y="0">A</tspan><tspan class="cls-4" x="765.57" y="0">D</tspan><tspan x="836.12" y="0">O</tspan></text><path class="cls-7" d="M396.62,342a19.94,19.94,0,0,1-7.42-1.35,17.37,17.37,0,0,1-9.79-9.53,19.32,19.32,0,0,1,0-14.44,17.34,17.34,0,0,1,3.92-5.75,17.86,17.86,0,0,1,5.92-3.78,21,21,0,0,1,14.69-.05,14.57,14.57,0,0,1,5.75,3.89l-2.39,2.39a13.16,13.16,0,0,0-4.83-3.23,16.1,16.1,0,0,0-5.7-1,15.88,15.88,0,0,0-5.94,1.09,14.14,14.14,0,0,0-4.78,3.1,14.49,14.49,0,0,0-3.18,4.68,15.68,15.68,0,0,0,0,11.74,14.49,14.49,0,0,0,3.18,4.68,14.14,14.14,0,0,0,4.78,3.1,15.88,15.88,0,0,0,5.94,1.09,15.68,15.68,0,0,0,5.7-1,13.5,13.5,0,0,0,4.83-3.26l2.39,2.39a14.85,14.85,0,0,1-5.75,3.92A20.07,20.07,0,0,1,396.62,342Z"/><path class="cls-7" d="M427.38,341.7V306.11h3.76v32.34h19.93v3.25Z"/><path class="cls-7" d="M481.07,342q-6.81,0-10.73-3.91t-3.91-11.6V306.11h3.76v20.24q0,6.3,2.85,9.3c1.9,2,4.57,3,8,3s6.19-1,8.09-3,2.84-5.1,2.84-9.3V306.11h3.66V326.5q0,7.68-3.89,11.6T481.07,342Z"/><path class="cls-7" d="M517.17,341.7V306.11h15.35q6,0,9.23,2.39a7.88,7.88,0,0,1,3.28,6.77,8.1,8.1,0,0,1-5,7.88,12.39,12.39,0,0,1-5.06,1l.87-1.22A14.91,14.91,0,0,1,541.7,324a8.39,8.39,0,0,1,3.84,3.1,9,9,0,0,1,1.37,5.11,8.25,8.25,0,0,1-3.33,7q-3.33,2.49-10,2.49Zm3.76-3.1h12.56q4.68,0,7.17-1.6a6.44,6.44,0,0,0,0-10.17c-1.66-1.06-4-1.6-7.17-1.6h-13v-3.1h11.75a11.52,11.52,0,0,0,6.63-1.63,6.13,6.13,0,0,0,0-9.68,11.69,11.69,0,0,0-6.63-1.6H520.93Z"/><path class="cls-7" d="M337.46,156.13v-6.67c2.91-1.16,5.81-1.89,8.25-3.38,4.72-2.89,6.72-7.62,6.78-13q.36-31.38.43-62.77.07-25.59-.08-51.19c0-7.18-4.33-12.15-11.59-13.44-.09-1.74-.18-3.54-.28-5.61h1.57c9.13,0,18.25,0,27.37,0a6.54,6.54,0,0,1,5.71,2.8q19.13,25,38.45,49.85c6.72,8.68,13.46,17.33,20.27,26.1a19.85,19.85,0,0,0-6.2,7.62c-4.16,8.89-1.7,19.09,8.16,23.85a4,4,0,0,1,2.19,2.47c2.23,6.07,6.29,10.2,12.76,11.66a17.92,17.92,0,0,0,18.19-7.11c.09-.13.19-.24.35-.43v31.42a2.05,2.05,0,0,0,.54.2c9.12-.09,18.27.21,27.35-.41a55.21,55.21,0,0,0,29.78-11.4c14.51-10.93,23.11-25.49,26.37-43.28a104.91,104.91,0,0,0,1-26.43,64.11,64.11,0,0,0-9.19-29.66c-8.69-14-21.32-22.62-37.37-26.32-6.9-1.6-13.9-1.66-20.92-1.64-5.68,0-11.36,0-17.21,0v29.4c-6.7-6.14-13.94-7.15-22-3.41,0-1.8,0-3.6,0-5.39-.05-4,.14-8-.27-11.88C447.19,12,443,7.81,437.06,6.56c-.57-.12-1.13-.28-1.75-.44v-6h1.75c21,0,42.08-.32,63.11.09,19.74.4,38.21,5.53,54.22,17.62A70.39,70.39,0,0,1,581.5,60.26a84.75,84.75,0,0,1,1.58,25.56,74.76,74.76,0,0,1-16.4,41.34,76.33,76.33,0,0,1-43,27,80,80,0,0,1-18,2.07c-13.9.07-27.8,0-41.7,0a31.53,31.53,0,0,1-4.65-.34,2.62,2.62,0,0,1-1.43-1.05Q450,144.23,442.2,133.54l-56.53-77-19.09-26c-.27-.37-.59-.71-1.06-1.27a7.73,7.73,0,0,0-.1.83q0,46.92.14,93.86a66.49,66.49,0,0,0,1,12.62c1.37,6.92,6.94,11.3,14.61,12.09v7.45Z"/><path class="cls-7" d="M491.19,32.92a13.25,13.25,0,0,1,12.35,9,45.23,45.23,0,0,1,1.16,4.89c.77,0,1.59-.08,2.42-.08a7.7,7.7,0,0,1,1.44.11,12.53,12.53,0,0,1,9.7,14.44c-1.54,7.66-6.75,11.73-13.89,13.39-5,1.17-10.22,1.62-15.34,2.36-2.11.31-4.24.54-6.37.81v.62c1.65.17,3.3.37,5,.5,6,.47,12.11.21,18,1.94,8.55,2.52,13.27,10.44,11.18,18.71a12.27,12.27,0,0,1-11.24,9l-.64,0h0c-1,2.28-1.47,4.53-2.72,6.25a11.8,11.8,0,0,1-9.62,4.78,12.4,12.4,0,0,1-8.51-3.35c-3.75-3.54-5.51-8.08-6.54-12.93-.93-4.38-1.56-8.82-2.33-13.22a4.62,4.62,0,0,0-.62-1.78,64.19,64.19,0,0,0,1.9,22.84c2.13,7.47,4.83,14.61,11,20.39l-5.53,5.14a41.77,41.77,0,0,1-7-14c-3.27-10.43-4.14-21.15-3.88-32,0-.6,0-1.2,0-1.8l-.5,0c-.26,2-.45,3.92-.8,5.86-.93,5.19-1.65,10.44-3,15.53-1.45,5.65-5.64,8.51-11.31,9.15a9.07,9.07,0,0,1-1,.06,12,12,0,0,1-11.29-9.6c-.47-2.42-1.42-3.29-3.66-4.16-10-3.86-9.85-14.29-4.38-20.35,3.11-3.46,7.21-5,11.64-5.45,5.32-.56,10.68-.73,16-1.06h1.69l.06-.64c-1.55-.2-3.1-.36-4.64-.62-5-.84-10.09-1.32-14.94-2.67-5.76-1.61-9.91-5.32-11.33-11.51-1.79-7.84,3.23-14.33,11.27-14.48.37,0,.74,0,1.22-.08a20.57,20.57,0,0,1,.35-3c1.12-4.38,4.31-6.48,8.48-7.21a13.36,13.36,0,0,1,2.33-.21c5,0,9.2,3,11.9,8.5,2,4,2.52,8.34,2.85,12.72.23,3,.43,6,.67,9a1.19,1.19,0,0,0,.66.82c.31-2.85.59-5.71.94-8.56.7-5.76.92-11.62,2.92-17.16a17,17,0,0,1,6.35-8.45,13.27,13.27,0,0,1,7.65-2.5m0-5.05a18.31,18.31,0,0,0-10.54,3.42,22.11,22.11,0,0,0-8.21,10.87c0,.11-.07.21-.1.31-3.61-5.71-9-8.93-15.09-8.93a18.37,18.37,0,0,0-3.2.28c-6.39,1.12-10.77,4.85-12.38,10.51a16.22,16.22,0,0,0-10.08,6,17,17,0,0,0-2.9,14.38,19.62,19.62,0,0,0,9,12.7,20.63,20.63,0,0,0-6.32,4.74,18.8,18.8,0,0,0-4.55,16.62c1.29,5.4,5.15,9.6,10.86,11.81l.49.21s0,.12,0,.2c1.48,7.67,8.61,13.69,16.24,13.69a14.35,14.35,0,0,0,1.61-.09c5.36-.61,9.59-2.79,12.41-6.31q.72,3.11,1.65,6.1a47.57,47.57,0,0,0,7.87,15.6,5,5,0,0,0,3.57,1.89l.38,0a5.06,5.06,0,0,0,3.43-1.35l2.12-2,3.41-3.16a5,5,0,0,0,0-7.37,27.19,27.19,0,0,1-3.48-4,17.73,17.73,0,0,0,5.15.76,16.69,16.69,0,0,0,13.69-6.85,18.15,18.15,0,0,0,2.31-4.62,17.33,17.33,0,0,0,13.1-12.4A20.23,20.23,0,0,0,511.1,77.75a20.74,20.74,0,0,0,12.1-15.42,17.42,17.42,0,0,0-2.77-13.11,17.12,17.12,0,0,0-11-7.29l-.7-.11c-.13-.5-.29-1-.47-1.54a18.37,18.37,0,0,0-17.1-12.41Z"/><g class="cls-8"><path class="cls-7" d="M333,328.09l16.18-8.27L333,311.54a11.61,11.61,0,0,0-3.37,7.16H30a11.67,11.67,0,0,0-3.37-7.16l-16.18,8.28,16.18,8.27A11.64,11.64,0,0,0,30,320.94H329.62A11.59,11.59,0,0,0,333,328.09Z"/></g><g class="cls-9"><path class="cls-7" d="M587.89,328.09l-16.18-8.27,16.18-8.28a11.67,11.67,0,0,1,3.37,7.16H890.9a11.67,11.67,0,0,1,3.37-7.16l16.18,8.28-16.18,8.27a11.64,11.64,0,0,1-3.37-7.15H591.26A11.64,11.64,0,0,1,587.89,328.09Z"/></g></g></g></svg>