<svg xmlns="http://www.w3.org/2000/svg" viewBox="0 0 473.68 557.45"><defs><style>.cls-1{fill:#ffd100;}</style></defs><g id="Capa_2" data-name="Capa 2"><g id="Capa_2-2" data-name="Capa 2"><path class="cls-1" d="M271.61,547.45l-.76,0a10,10,0,0,1-7.07-3.74c-15.73-19.79-27-42.26-36.58-72.86a424.56,424.56,0,0,1-16.79-82c-1.35,6.55-2.83,13.09-4.5,19.56-7.82,30.32-30.86,49.13-64.89,53a57.82,57.82,0,0,1-6.33.35c-31,0-60-24.56-66-55.92-1.52-7.91-3.31-9.89-12-13.26C33,383.36,17,366.22,11.81,344.29c-5.55-23.36,1.8-49.85,19.18-69.14,15.62-17.32,37.27-27.54,64.38-30.4,2.71-.28,5.43-.55,8.15-.79-6.31-1.28-12.6-2.73-18.81-4.47-34-9.5-56-31.88-63.49-64.72-5-22-.88-42.89,11.66-58.93,11.92-15.25,30-24.17,51-25.3a50.37,50.37,0,0,1,1.29-7.87c4.22-16.46,16.35-37.33,50.2-43.26a77.48,77.48,0,0,1,13.36-1.19c28.79,0,53,17,68.21,47.92a135.36,135.36,0,0,1,11,33.22c2.06-16.09,5-32.33,10.69-48.17,7.11-19.72,19-35.5,35.32-46.92A76.42,76.42,0,0,1,317.78,10c31.42,0,59.92,20.79,70.94,51.73A123.59,123.59,0,0,1,393.11,79l0,.09q2-.09,4-.09a49.65,49.65,0,0,1,9,.72c17.73,3.21,34.07,14.13,44.82,29.95,10.93,16.09,15.11,35.7,11.48,53.8-4.1,20.4-13.24,37.21-27.18,49.94C422.6,225,405.93,233.25,385.7,238c-9.17,2.13-18.46,3.79-27.73,5.22a193,193,0,0,1,34.42,6.5c23,6.78,42,21.1,53.5,40.31s14.77,42.38,9.07,64.89c-7,27.83-32.19,48.83-61.8,52-.59,1.6-1.17,3.2-1.74,4.78-2.8,7.78-5.7,15.83-10.77,22.79-12.92,17.74-33.32,27.91-56,27.91A71.41,71.41,0,0,1,275.44,443a105.4,105.4,0,0,1-16.95-20.74C268.94,455.05,282,482,306,504.59a10,10,0,0,1,0,14.62l-27.56,25.57A10,10,0,0,1,271.61,547.45Z"/><path d="M317.78,20c26.88,0,51.69,17.48,61.52,45.09,2.65,7.45,3.73,15.46,5.8,24.34,3.81,0,7.92-.39,12-.39a40,40,0,0,1,7.18.56c32.05,5.8,54.72,39.82,48.27,71.94-7.65,38.13-33.6,58.4-69.17,66.67-25,5.81-50.87,8-76.37,11.75-10.55,1.53-21.16,2.7-31.74,4v3.1c8.23.84,16.44,1.83,24.68,2.48,29.95,2.38,60.32,1.08,89.57,9.7,42.6,12.54,66.11,52,55.7,93.15-6.28,24.82-29.11,43.07-56,44.75-1.65.1-3.29.26-3.24.26h.09c-4.79,11.33-7.35,22.57-13.58,31.14-11.52,15.81-29.61,23.8-47.9,23.8a61.66,61.66,0,0,1-42.37-16.68c-18.69-17.63-27.46-40.24-32.59-64.42-4.62-21.79-7.75-43.9-11.58-65.86a24.08,24.08,0,0,0-3.09-8.86c-3,38.48-1.22,76.45,9.43,113.78s24,72.77,54.7,101.56l-27.56,25.57c-17-21.4-27.15-44.92-34.87-69.61-16.25-51.95-20.58-105.37-19.31-159.45.07-3,0-6,0-8.95l-2.48-.09c-1.31,9.73-2.27,19.52-4,29.18-4.61,25.85-8.2,52-14.74,77.36C189,434,168.14,448.24,139.89,451.44a45.06,45.06,0,0,1-5.2.29c-25.4,0-51-20.49-56.22-47.81-2.32-12.05-7.09-16.38-18.21-20.69C10.71,364,11.18,312.06,38.42,281.85c15.52-17.21,35.92-24.83,58-27.15,26.5-2.79,53.2-3.62,79.81-5.25,1-.06,2-.08,3.06-.08,1.77,0,3.55.06,5.32.06l.33-3.18c-7.71-1-15.47-1.81-23.14-3.1-24.86-4.16-50.24-6.54-74.39-13.29C58.69,221.84,38,203.34,31,172.54,22,133.47,47.06,101.17,87.1,100.43c1.84,0,3.68-.24,6.08-.4.55-5.06.5-10.13,1.71-14.88,5.6-21.8,21.47-32.25,42.25-35.89a66.83,66.83,0,0,1,11.63-1c25,0,45.8,15,59.24,42.33,9.83,20,12.56,41.54,14.23,63.33,1.14,14.9,2.14,29.8,3.33,44.69.11,1.42,1.15,2.76,3.27,4.09,1.54-14.21,2.93-28.44,4.66-42.63,3.51-28.71,4.62-57.87,14.55-85.45,6.19-17.19,16.42-31.48,31.64-42.11C291.94,23.9,305.09,20,317.78,20m0-20a86.4,86.4,0,0,0-49.56,16.07c-18.05,12.63-31.17,30-39,51.73-1.51,4.17-2.82,8.35-4,12.52-8.07-15.95-18.45-28.54-30.87-37.44a76.81,76.81,0,0,0-45.61-14.66,87.38,87.38,0,0,0-15.08,1.34c-14.27,2.5-26.32,7.61-35.83,15.19C86.8,53.57,79.29,65.49,75.52,80.18c-.1.4-.19.79-.28,1.17a82.36,82.36,0,0,0-23.59,7.07,73.61,73.61,0,0,0-40.9,52.43A85.17,85.17,0,0,0,11.48,177c4.28,18.72,12.88,34.54,25.56,47a95.66,95.66,0,0,0,25.84,18,98.35,98.35,0,0,0-39.31,26.48C4,290.15-4.22,320.1,2.09,346.61c6,25.22,24.09,44.85,50.94,55.26a24.47,24.47,0,0,1,4.83,2.28,16.85,16.85,0,0,1,1,3.54c6.91,35.91,40.23,64,75.86,64a68.19,68.19,0,0,0,7.45-.41c29.77-3.38,52.13-17,64.85-39.06a416.18,416.18,0,0,0,10.66,41.55c10,31.83,21.77,55.29,38.3,76.09a20,20,0,0,0,14.15,7.5c.5,0,1,.05,1.51.05a20,20,0,0,0,13.6-5.34L308,531l4.76-4.42a20,20,0,0,0,.09-29.23,140.47,140.47,0,0,1-26.67-34.44,82.29,82.29,0,0,0,73.65,1.54,77.37,77.37,0,0,0,28.89-24.08c5.71-7.83,8.84-16.24,11.78-24.41a82.73,82.73,0,0,0,37-16.83,77.61,77.61,0,0,0,27.17-41.77c6.35-25.1,2.73-50.84-10.19-72.47-11.28-18.88-29-33.49-50.53-41.81,37.21-13.19,60.68-39.74,68.27-77.56,4.16-20.72-.58-43.1-13-61.39-12.25-18-30.95-30.49-51.3-34.17a54.49,54.49,0,0,0-6.67-.77,95.32,95.32,0,0,0-3.09-10.77A88.74,88.74,0,0,0,366.67,16,82.9,82.9,0,0,0,317.78,0Z"/></g></g></svg>