<svg xmlns="http://www.w3.org/2000/svg" xmlns:xlink="http://www.w3.org/1999/xlink" viewBox="0 0 1135.92 1135.92"><defs><style>.cls-1{stroke:#fff;stroke-width:2.95px;}.cls-1,.cls-2,.cls-3{stroke-miterlimit:10;}.cls-2,.cls-3{fill:none;stroke-width:52.35px;}.cls-2{stroke:#090c10;}.cls-3{stroke:url(#Degradado_sin_nombre_41);}.cls-4,.cls-5{fill-rule:evenodd;}.cls-4{fill:url(#Degradado_sin_nombre_41-2);}.cls-5{fill:url(#Degradado_sin_nombre_41-3);}</style><linearGradient id="Degradado_sin_nombre_41" x1="166.35" y1="969.57" x2="969.57" y2="166.35" gradientTransform="translate(567.96 -235.26) rotate(45)" gradientUnits="userSpaceOnUse"><stop offset="0" stop-color="#f7ec32"/><stop offset="1" stop-color="#f79420"/></linearGradient><linearGradient id="Degradado_sin_nombre_41-2" x1="402.17" y1="567.96" x2="733.75" y2="567.96" gradientTransform="matrix(1, 0, 0, 1, 0, 0)" xlink:href="#Degradado_sin_nombre_41"/><linearGradient id="Degradado_sin_nombre_41-3" x1="491.57" y1="564.92" x2="653.77" y2="564.92" gradientTransform="matrix(1, 0, 0, 1, 0, 0)" xlink:href="#Degradado_sin_nombre_41"/></defs><g id="Capa_2" data-name="Capa 2"><g id="OBJECTS"><circle class="cls-1" cx="567.96" cy="567.96" r="497.36"/><circle class="cls-2" cx="567.96" cy="567.96" r="506.09"/><circle class="cls-3" cx="567.96" cy="567.96" r="541.78" transform="translate(-235.26 567.96) rotate(-45)"/><path class="cls-4" d="M733.67,559.57c-2.21-87.33-74.15-157.43-162.7-157.43-87.48,0-158.81,68.51-162.62,154.47-.08,2.36-.15,4.72-.15,7.08a160.37,160.37,0,0,0,23.31,83.45l-29.34,86.64,90.15-28.65A163.06,163.06,0,0,0,571,725.25c89.92,0,162.78-72.32,162.78-161.56C733.75,562.32,733.75,561,733.67,559.57ZM571,699.49A136.32,136.32,0,0,1,495.68,677L443.1,693.77l17.07-50.45a134.39,134.39,0,0,1-26.07-79.63,125.34,125.34,0,0,1,.69-13.18C441.5,481.77,500,427.89,571,427.89c71.86,0,130.92,55.25,136.41,125.21.3,3.51.45,7,.45,10.59C707.83,638.6,646.41,699.49,571,699.49Z"/><path class="cls-5" d="M645.58,596.31c-4-2-23.63-11.59-27.29-12.88s-6.32-2-9,2-10.36,12.88-12.65,15.47-4.65,3-8.68,1-16.85-6.1-32.09-19.66c-11.81-10.44-19.89-23.4-22.18-27.36s-.22-6.1,1.76-8.08c1.83-1.82,4-4.64,6-6.93l1.44-1.9a46.18,46.18,0,0,0,2.52-4.73c1.37-2.67.69-5-.3-6.94s-9-21.49-12.35-29.41-6.63-6.56-9-6.56-4.95-.37-7.62-.37a14.72,14.72,0,0,0-10.67,4.95c-3.66,4-13.94,13.56-13.94,33.07a50.31,50.31,0,0,0,2.05,13.49c4,13.94,12.73,25.45,14.25,27.44,2,2.59,27.59,43.89,68.13,59.82,40.62,15.77,40.62,10.51,47.93,9.83s23.63-9.53,26.9-18.83,3.36-17.14,2.37-18.82S649.53,598.29,645.58,596.31Z"/></g></g></svg>