<svg xmlns="http://www.w3.org/2000/svg" xmlns:xlink="http://www.w3.org/1999/xlink" viewBox="0 0 1135.92 1135.92"><defs><style>.cls-1{stroke:#fff;stroke-width:2.95px;}.cls-1,.cls-2,.cls-3{stroke-miterlimit:10;}.cls-2,.cls-3{fill:none;stroke-width:52.35px;}.cls-2{stroke:#090c10;}.cls-3{stroke:url(#Degradado_sin_nombre_41);}.cls-4{fill:url(#Degradado_sin_nombre_41-2);}</style><linearGradient id="Degradado_sin_nombre_41" x1="166.35" y1="969.57" x2="969.57" y2="166.35" gradientUnits="userSpaceOnUse"><stop offset="0" stop-color="#f7ec32"/><stop offset="1" stop-color="#f79420"/></linearGradient><linearGradient id="Degradado_sin_nombre_41-2" x1="412.67" y1="567.96" x2="723.25" y2="567.96" xlink:href="#Degradado_sin_nombre_41"/></defs><g id="Capa_2" data-name="Capa 2"><g id="OBJECTS"><circle class="cls-1" cx="567.96" cy="567.96" r="497.36"/><circle class="cls-2" cx="567.96" cy="567.96" r="506.08"/><circle class="cls-3" cx="567.96" cy="567.96" r="541.78"/><path class="cls-4" d="M716.76,492.72a39,39,0,0,0-27.46-27.64C665.08,458.55,568,458.55,568,458.55s-97.12,0-121.34,6.53a39,39,0,0,0-27.46,27.64c-6.49,24.38-6.49,75.24-6.49,75.24s0,50.86,6.49,75.24a39,39,0,0,0,27.46,27.64c24.22,6.53,121.34,6.53,121.34,6.53s97.12,0,121.34-6.53a39,39,0,0,0,27.46-27.64c6.49-24.38,6.49-75.24,6.49-75.24S723.25,517.1,716.76,492.72ZM536.2,614.14V521.78L617.37,568Z"/></g></g></svg>